<svg width="40" height="40" fill="none" xmlns="http://www.w3.org/2000/svg"><path d="M0 20a20 20 0 1 1 40 0 20 20 0 0 1-40 0Z" fill="#256E99"/><path fill-rule="evenodd" clip-rule="evenodd" d="M9.05 19.79c5.83-2.54 9.72-4.22 11.67-5.03 5.55-2.3 6.7-2.7 7.46-2.72.16 0 .53.04.77.23.2.17.26.39.29.54.02.16.06.51.03.8-.3 3.15-1.6 10.83-2.27 14.37-.28 1.5-.83 2-1.36 2.05-1.16.1-2.05-.77-3.17-1.5-1.76-1.16-2.76-1.88-4.46-3-1.98-1.3-.7-2.02.43-3.19.3-.3 5.4-4.96 5.5-5.38.02-.05.03-.25-.09-.35-.11-.1-.28-.07-.4-.04-.19.04-3 1.9-8.45 5.57a3.8 3.8 0 0 1-2.16.8c-.72-.01-2.1-.4-3.11-.73-1.26-.4-2.25-.62-2.16-1.32.04-.36.54-.72 1.48-1.1Z" fill="#fff"/></svg>
