<svg width="40" height="40" xmlns="http://www.w3.org/2000/svg"><path d="M0 20a20 20 0 1 1 40 0 20 20 0 0 1-40 0Z" fill="#256E99"/><path d="m7.87 31.63 1.71-6.22a11.9 11.9 0 0 1-1.6-6.02c0-6.63 5.42-12.02 12.07-12.02a12.02 12.02 0 1 1 0 24.05h-.01c-2.02 0-4-.5-5.78-1.46l-6.4 1.67Zm6.7-3.85.37.22a10.1 10.1 0 0 0 5.1 1.4h.01c5.53 0 10.04-4.48 10.04-10a9.99 9.99 0 0 0-10.04-10 10.02 10.02 0 0 0-8.5 15.3l.23.39-1 3.68 3.8-.99Z" fill="#fff"/><path d="m8.3 31.21 1.65-6.01a11.51 11.51 0 0 1-1.57-5.8 11.66 11.66 0 0 1 19.92-8.2 11.5 11.5 0 0 1 3.41 8.2c0 6.4-5.23 11.61-11.66 11.61-1.96 0-3.87-.49-5.58-1.41L8.3 31.2Z" fill="#256E99"/><path d="m7.87 31.63 1.71-6.22a11.9 11.9 0 0 1-1.6-6.02c0-6.63 5.42-12.02 12.07-12.02a12.02 12.02 0 1 1 0 24.05h-.01c-2.02 0-4-.5-5.78-1.46l-6.4 1.67Zm6.7-3.85.37.22a10.1 10.1 0 0 0 5.1 1.4h.01c5.53 0 10.04-4.48 10.04-10a9.99 9.99 0 0 0-10.04-10 10.02 10.02 0 0 0-8.5 15.3l.23.39-1 3.68 3.8-.99Z" fill="#fff"/><path fill-rule="evenodd" clip-rule="evenodd" d="M17.03 14.36c-.22-.5-.46-.5-.67-.51l-.58-.01c-.2 0-.53.07-.8.37-.29.3-1.06 1.03-1.06 2.51 0 1.48 1.08 2.9 1.23 3.11.15.2 2.1 3.33 5.16 4.54 2.55 1 3.07.8 3.62.75.55-.05 1.78-.73 2.04-1.43.25-.7.25-1.3.17-1.43-.07-.13-.28-.2-.58-.35-.3-.15-1.78-.88-2.06-.98-.28-.1-.48-.15-.68.15-.2.3-.78.97-.95 1.17-.18.2-.36.23-.66.08-.3-.15-1.27-.47-2.43-1.5-.9-.8-1.5-1.78-1.68-2.08-.17-.3-.01-.46.14-.6l.45-.53c.15-.18.2-.3.3-.5.1-.2.05-.38-.02-.53-.08-.14-.67-1.63-.94-2.23Z" fill="#fff"/></svg>
