<svg width="34" height="24" fill="none" xmlns="http://www.w3.org/2000/svg"><g clip-path="url(#a)"><path d="M33.08 3.71a4.25 4.25 0 0 0-3-3C27.47 0 16.9 0 16.9 0S6.33.02 3.7.74A4.25 4.25 0 0 0 .72 3.73C-.09 8.4-.39 15.5.73 19.98a4.25 4.25 0 0 0 3 3c2.62.71 13.19.71 13.19.71s10.56 0 13.19-.72a4.25 4.25 0 0 0 3-2.99c.83-4.67 1.09-11.77-.03-16.27z" fill="red"/><path d="m13.54 16.92 8.76-5.08-8.77-5.07v10.15z" fill="#fff"/></g><defs><clipPath id="a"><path fill="#fff" d="M0 0h34v24H0z"/></clipPath></defs></svg>