<svg xmlns="http://www.w3.org/2000/svg" viewBox="0 0 47.66 47.66" xml:space="preserve"><g fill="#00477e"><path d="M5.35 47.66H42.3c.35 0 .63-.28.63-.63V.63A.63.63 0 0 0 42.3 0H5.35a.63.63 0 0 0-.62.63v46.4c0 .35.28.63.62.63zm.63-46.41h35.7v45.16H5.98V1.25z"/><path d="M39.74 3.84H7.92a.63.63 0 0 0-.63.63v8.17c0 .35.28.63.63.63h31.82c.35 0 .63-.28.63-.63V4.47a.63.63 0 0 0-.63-.63zm-.62 8.18H8.54V5.09h30.58v6.93zM17.32 15.86h-6.8a.63.63 0 0 0-.63.63v7.34c0 .34.28.62.63.62h6.8c.34 0 .62-.28.62-.62v-7.34a.63.63 0 0 0-.62-.63zm-.63 7.34h-5.55v-6.09h5.55v6.1zM27.23 15.86h-6.8a.63.63 0 0 0-.63.63v7.34c0 .34.28.62.63.62h6.8c.34 0 .62-.28.62-.62v-7.34a.63.63 0 0 0-.62-.63zm-.63 7.34h-5.55v-6.09h5.55v6.1zM37.11 15.86h-6.8a.63.63 0 0 0-.62.63v7.34c0 .34.28.62.62.62h6.8c.35 0 .63-.28.63-.62v-7.34a.62.62 0 0 0-.63-.63zm-.62 7.34h-5.55v-6.09h5.55v6.1zM17.32 25.6h-6.8a.63.63 0 0 0-.63.62v7.34c0 .34.28.62.63.62h6.8c.34 0 .62-.28.62-.62v-7.34a.62.62 0 0 0-.62-.63zm-.63 7.33h-5.55v-6.09h5.55v6.1zM27.23 25.6h-6.8a.63.63 0 0 0-.63.62v7.34c0 .34.28.62.63.62h6.8c.34 0 .62-.28.62-.63v-7.33a.63.63 0 0 0-.62-.63zm-.63 7.33h-5.55v-6.09h5.55v6.1zM37.11 25.6h-6.8a.63.63 0 0 0-.62.62v7.34c0 .34.28.62.62.62h6.8c.35 0 .63-.28.63-.62v-7.34a.63.63 0 0 0-.63-.63zm-.62 7.33h-5.55v-6.09h5.55v6.1zM17.32 35.32h-6.8a.63.63 0 0 0-.63.63v7.33c0 .35.28.63.63.63h6.8c.34 0 .62-.28.62-.63v-7.34a.62.62 0 0 0-.62-.62zm-.63 7.34h-5.55v-6.09h5.55v6.09zM27.23 35.32h-6.8a.63.63 0 0 0-.63.63v7.33c0 .35.28.63.63.63h6.8c.34 0 .62-.28.62-.63v-7.34a.63.63 0 0 0-.62-.62zm-.63 7.34h-5.55v-6.1h5.55v6.1zM37.11 35.32h-6.8a.63.63 0 0 0-.62.63v7.33c0 .35.28.63.62.63h6.8c.35 0 .63-.28.63-.63v-7.34a.63.63 0 0 0-.63-.62zm-.62 7.34h-5.55v-6.09h5.55v6.09z"/></g></svg>
