<svg xmlns="http://www.w3.org/2000/svg" viewBox="0 0 56.01 56.01" xml:space="preserve" fill="#00477e"><path d="M12 31C5.38 31 0 36.4 0 43s5.38 12 12 12 12-5.38 12-12-5.38-12-12-12zm0 22a10.01 10.01 0 0 1 0-20 10.01 10.01 0 0 1 0 20z"/><path d="M18 42h-5v-5a1 1 0 1 0-2 0v6a1 1 0 0 0 1 1h6a1 1 0 1 0 0-2zM55.43 41.91c-2.01-3.8-8.98-7.91-9.29-8.1a4.95 4.95 0 0 0-3.72-.64c-.85.23-1.53.77-2 1.55a33.35 33.35 0 0 1-2.59 2.86c-2.37 1.6-4.25 1.42-6.3-.63L20.06 25.47c-2.04-2.05-2.23-3.93-.63-6.3.22-.3 1.65-1.57 2.87-2.59a3.33 3.33 0 0 0 1.54-2 4.94 4.94 0 0 0-.65-3.72c-.17-.3-4.29-7.27-8.08-9.28a4.9 4.9 0 0 0-5.8.87L6.76 5C.73 11.02.53 18.39 6.2 26.3a1 1 0 0 0 1.63-1.16C2.66 17.93 2.78 11.8 8.18 6.4l2.53-2.54a2.92 2.92 0 0 1 3.45-.51c3.3 1.74 7.25 8.45 7.29 8.5.45.8.62 1.61.46 2.2-.1.36-.33.64-.69.84l-.15.1c-.85.71-2.88 2.44-3.3 3.06-.62.9-1.02 1.8-1.24 2.67a14.17 14.17 0 0 1-1.47-4.88 1 1 0 0 0-2 .2c.73 6.96 6.14 11.48 6.37 11.67l.08.05 10.6 10.61.14.13.1.15a20.87 20.87 0 0 0 11.71 5.3 1 1 0 0 0 .1-2 17.62 17.62 0 0 1-5.55-1.56 8.62 8.62 0 0 0 2.34-1.15c.63-.42 2.35-2.45 3.06-3.3l.1-.16c.2-.36.48-.58.84-.68.59-.16 1.4 0 2.19.45 1.87 1.1 7.07 4.56 8.52 7.3.6 1.14.4 2.52-.52 3.44l-2.54 2.54c-5.4 5.39-11.79 5.44-19.02.16a1 1 0 0 0-1.18 1.61c3.94 2.88 7.74 4.32 11.31 4.32 3.72 0 7.19-1.56 10.3-4.68l2.54-2.54a4.9 4.9 0 0 0 .88-5.79z"/></svg>
