<svg xmlns="http://www.w3.org/2000/svg" viewBox="0 0 504 504" xml:space="preserve" fill="#00477e"><path d="m395.57 156-90.54-90.74a7.84 7.84 0 0 0-5.58-2.26H65.15a21.66 21.66 0 0 0-21.7 21.63l-.13 397.7A21.7 21.7 0 0 0 65.02 504h311.03a21.7 21.7 0 0 0 21.7-21.66l.12-320.8c0-2.09-.83-4.07-2.3-5.55zm-13.58 326.33a5.94 5.94 0 0 1-5.94 5.93H65.02a5.92 5.92 0 0 1-5.95-5.9l.13-397.71a5.9 5.9 0 0 1 5.94-5.9h231.04l85.93 86.08-.12 317.5z"/><path d="M354.45 153.56h-31.97c-8.35 0-15.35-6.7-15.35-15.06V70.78a7.88 7.88 0 1 0-15.75 0v67.72c0 17.04 14.05 30.81 31.1 30.81h31.97a7.88 7.88 0 1 0 0-15.75z"/><path d="M458.38 93.13 367.84 2.36A7.92 7.92 0 0 0 362.26 0H127.95a21.74 21.74 0 0 0-21.64 21.78v49a7.87 7.87 0 1 0 15.75 0v-49a5.98 5.98 0 0 1 5.9-6.03H359l85.93 86.11-.12 317.56a5.86 5.86 0 0 1-5.94 5.83h-49a7.88 7.88 0 1 0 0 15.75h49c11.96 0 21.69-9.63 21.68-21.59l.13-320.71c0-2.09-.83-4.1-2.3-5.57z"/><path d="M417.27 90.56H385.3c-8.36 0-15.17-6.52-15.17-14.88V7.96a7.88 7.88 0 0 0-15.75 0v67.72c0 17.04 13.87 30.63 30.91 30.63h31.98a7.88 7.88 0 0 0 0-15.75zM105.74 192.94H86.57a7.88 7.88 0 1 0 0 15.75h19.17a7.88 7.88 0 0 0 0-15.75zM354.33 192.94H141.11a7.87 7.87 0 1 0 0 15.75h213.22a7.87 7.87 0 1 0 0-15.75zM354.33 232.31h-59.74a7.87 7.87 0 1 0 0 15.75h59.74a7.87 7.87 0 1 0 0-15.75zM259.22 232.31H86.57a7.88 7.88 0 1 0 0 15.75h172.65a7.88 7.88 0 0 0 0-15.75zM354.33 271.68H86.57a7.88 7.88 0 0 0 0 15.76h267.76a7.88 7.88 0 1 0 0-15.76zM354.33 389.81H86.57a7.88 7.88 0 0 0 0 15.75h267.76a7.88 7.88 0 1 0 0-15.75zM105.74 311.06H86.57a7.88 7.88 0 0 0 0 15.75h19.17a7.88 7.88 0 0 0 0-15.75zM354.33 311.06H141.11a7.87 7.87 0 1 0 0 15.75h213.22a7.88 7.88 0 1 0 0-15.75zM354.33 350.44h-59.74a7.88 7.88 0 1 0 0 15.75h59.74a7.88 7.88 0 1 0 0-15.75zM259.22 350.44H86.57a7.88 7.88 0 0 0 0 15.75h172.65a7.88 7.88 0 0 0 0-15.75zM105.74 429.18H86.57a7.88 7.88 0 0 0 0 15.76h19.17a7.88 7.88 0 0 0 0-15.76zM354.33 429.18H141.11a7.87 7.87 0 1 0 0 15.76h213.22a7.88 7.88 0 1 0 0-15.76zM417.15 129.94h-46.74a7.87 7.87 0 1 0 0 15.75h46.74a7.88 7.88 0 1 0 0-15.75zM417.15 169.31h-27.28a7.87 7.87 0 1 0 0 15.75h27.28a7.87 7.87 0 1 0 0-15.75zM417.15 208.68h-27.28a7.87 7.87 0 1 0 0 15.76h27.28a7.87 7.87 0 1 0 0-15.76zM417.15 326.81h-24.87a7.88 7.88 0 0 0 0 15.75h24.87a7.88 7.88 0 1 0 0-15.75zM417.15 248.06h-27.28a7.88 7.88 0 1 0 0 15.75h27.28a7.88 7.88 0 1 0 0-15.75zM417.15 287.44h-27.28a7.88 7.88 0 1 0 0 15.75h27.28a7.88 7.88 0 1 0 0-15.75zM417.15 366.18h-27.28a7.88 7.88 0 1 0 0 15.76h27.28a7.88 7.88 0 1 0 0-15.76z"/></svg>
