<svg xmlns="http://www.w3.org/2000/svg" viewBox="0 0 325 325" xml:space="preserve" fill="#256E99"><path d="M235.72 89.43a18.73 18.73 0 0 0 13.33 5.53c5.1 0 9.86-2 13.44-5.64a19.12 19.12 0 0 0-.12-26.85 18.73 18.73 0 0 0-13.33-5.53c-5.08 0-9.85 2-13.43 5.64a19.12 19.12 0 0 0 .11 26.85zM244.16 71a6.8 6.8 0 0 1 9.72-.04 7.09 7.09 0 0 1 .05 9.95 6.8 6.8 0 0 1-9.72.04 7.08 7.08 0 0 1-.05-9.95z"/><path d="M323.24 83.28 241.72 1.76a6 6 0 0 0-8.49 0L1.76 233.23a6 6 0 0 0 0 8.48l81.52 81.53a6 6 0 0 0 8.49 0l24.42-24.42 29.99-30 29.98-29.97.02-.01v-.02l29.98-29.97.02-.02 29.98-29.98 29.99-29.99 57.1-57.1a6 6 0 0 0 0-8.48zm-61.33 52.85-13.38-13.37a6 6 0 0 0-8.48 8.49l13.37 13.37-21.5 21.5-13.38-13.37a6 6 0 0 0-8.48 8.49l13.37 13.37-21.5 21.5-13.38-13.37a6 6 0 0 0-8.48 8.49l13.37 13.37-21.5 21.5-13.38-13.36a6 6 0 0 0-8.49 8.48l13.38 13.37-21.5 21.51-13.38-13.37a6 6 0 0 0-8.49 8.48l13.37 13.38-21.5 21.5-13.38-13.37a6 6 0 0 0-8.48 8.49l13.37 13.37-15.93 15.93-73.04-73.04L237.47 14.48l73.04 73.05-48.6 48.6z"/></svg>
