<svg xmlns="http://www.w3.org/2000/svg" viewBox="0 0 290 290" xml:space="preserve" fill="#256E99"><path d="M145.2 0a5 5 0 0 0-3.07.9C93.23 35.13 44.58 40 5 40a5 5 0 0 0-4.95 5.74C7.56 95.81 17.54 156.12 38.54 204.5c10.5 24.19 23.78 45.45 41.2 60.82S118.84 290 145 290s47.85-9.32 65.26-24.69 30.7-36.63 41.2-60.82c21-48.37 30.98-108.68 38.48-158.75A5 5 0 0 0 285 40c-39.17 0-88.27-9.8-137.43-39.29a5 5 0 0 0-2.37-.7zm.04 10.84c47.55 27.83 94.89 38.07 133.93 38.98-7.4 48.8-17.36 105.72-36.88 150.69-10.12 23.31-22.78 43.3-38.65 57.3-15.86 14.01-34.8 22.2-58.64 22.2s-42.78-8.19-58.65-22.2c-15.86-14-28.52-33.98-38.64-57.3C28.2 155.57 18.25 98.67 10.84 49.89c38.78-.5 86.56-6.54 134.4-39.05zm-60.5 41.82c-.23 0-.45.04-.66.1-19.66 5.42-38.54 7.92-55.9 8.97a2.5 2.5 0 0 0-2.31 2.89c7.16 44.46 16.77 92.82 33.3 130.91a2.5 2.5 0 1 0 4.6-1.99c-15.89-36.58-25.4-83.46-32.5-127.05 16.86-1.16 35.1-3.66 54.13-8.91a2.5 2.5 0 0 0-.66-4.92zm130.1 37.29a5 5 0 0 0-3.74 1.93l-76.51 95.64-46.05-46.05a5 5 0 1 0-7.08 7.07l50 50a5 5 0 0 0 7.44-.42l80-100a5 5 0 0 0-4.06-8.17z"/></svg>
