<svg xmlns="http://www.w3.org/2000/svg" viewBox="0 0 485 485" xml:space="preserve" fill="#256E99"><path d="M375.94 375.03a234.36 234.36 0 0 0-35.52-14.47c-.76-.4-2.27-1.21-4.3-2.33-16.67-9.18-29.8-17.87-36.12-23.8v-24.29c30.39-17.37 51.16-48.54 57.8-86.7 17.22-4.92 32.2-21.08 32.2-35.94 0-15.04-11.3-25.03-30-27.1V150h35v-7.5c0-9.65-8.38-46.8-27-47.47a132.52 132.52 0 0 0-78-81.28V0h-95v13.75a132.45 132.45 0 0 0-78.03 81.28C98.37 95.74 90 132.85 90 142.5v7.5h35v10.4c-18.7 2.07-30 12.06-30 27.1 0 14.86 14.98 31.02 32.2 35.95 6.64 38.17 27.42 69.33 57.8 86.7v24.28c-6.31 5.93-19.45 14.62-36.1 23.8a424.94 424.94 0 0 1-4.34 2.34c-13.41 4.4-25.37 9.34-35.49 14.66C46.5 407.41 45.03 450.55 45 452.37V485h395v-32.54c0-1.83-.95-45.34-64.06-77.43zM340 376.22a220.93 220.93 0 0 1 25 10.12V430h-25v-53.78zm35-188.72c0 6.13-6.63 14.47-15.27 19.07.17-2.96.27-31.09.27-31.09 13.37 1.88 15 8.79 15 12.02zM290 29.96c28.46 12.58 50.8 36 62.05 65.04H290V29.96zM210 15h65v80h-65V15zm-15 14.96V95h-62.08A117.46 117.46 0 0 1 195 29.96zM110 187.5c0-3.23 1.63-10.14 15-12.02 0 0 .1 28.13.27 31.09-8.64-4.6-15.27-12.94-15.27-19.07zm-4.09-52.5c2.29-10.77 8.32-23.69 11.76-25h249.66c3.44 1.31 9.47 14.23 11.76 25H105.9zm35.32 81.16A134.78 134.78 0 0 1 140 197.5V150h205v47.5c0 6.59-.41 12.87-1.23 18.67-5.16 37.35-25.1 67.55-54.73 82.88C275.07 306.3 259.42 310 242.5 310s-32.58-3.69-46.55-10.96c-29.62-15.32-49.56-45.52-54.72-82.88zM285 317.3v17.31c-5.13 5.36-21.39 20.39-42.5 20.39-20.98 0-37.35-15.05-42.5-20.4v-17.3c13.18 5.1 27.42 7.7 42.5 7.7 15.08 0 29.32-2.6 42.5-7.7zm-125 51.9c9.75-5.5 23.2-13.62 32.24-21.16 8.64 8.13 26.78 21.96 50.26 21.96s41.62-13.83 50.26-21.97c9.03 7.55 22.48 15.66 32.24 21.17V430H160v-60.8zm-40 17.3c7.43-3.63 15.8-7.07 25-10.25V430h-25v-43.5zM90.2 470H60v-17.37c.1-2.06 2.19-31.7 45-57.92v35.49c-8.47 1.22-15 8.5-15 17.3v20c0 .85.08 1.68.2 2.5zm289.8-2.5c0 1.35-1.15 2.5-2.5 2.5h-270a2.53 2.53 0 0 1-2.5-2.5v-20c0-1.35 1.15-2.5 2.5-2.5h270c1.35 0 2.5 1.15 2.5 2.5v20zm45 2.5h-30.2c.12-.82.2-1.65.2-2.5v-20c0-8.8-6.53-16.08-15-17.3v-35.76c43.45 26.3 44.95 56.39 45 58.13V470z"/><path d="M242.5 255h20v-15H250v-32.5h-15v40a7.5 7.5 0 0 0 7.5 7.5z"/></svg>
