<svg width="0" height="0" class="hidden">
    <symbol fill="none" xmlns="http://www.w3.org/2000/svg" viewBox="0 0 16 16" id="call">
        <path d="M11 10C10 11 10 12 9 12C8 12 7 11 6 10C5 9 4 8 4 7C4 6 5 6 6 5C7 4 4 1 3 1C2 1 0 4 0 4C0 6 2.055 10.055 4 12C5.945 13.945 10 16 12 16C12 16 15 14 15 13C15 12 12 9 11 10Z" fill="#fff"></path>
    </symbol>
    <symbol fill="none" xmlns="http://www.w3.org/2000/svg" viewBox="0 0 16 16" id="location">
        <path d="M10.4057 15.3942L8.14265 8.63992H0.788086L14.9314 0.702637L10.4057 15.3942Z" fill="#00477e"></path>
    </symbol>
    <symbol xmlns="http://www.w3.org/2000/svg" viewBox="0 0 32 32" id="arrow">
        <path d="M21.18 30 7 15.87 20.91 2 24 5 13 15.87 24 27l-2.82 3Z"></path>
    </symbol>
    <symbol xmlns="http://www.w3.org/2000/svg" viewBox="0 0 16 16" id="close">
        <path fill="#303030" d="M15.14 13.6 13.73 15 1 2.4 2.41 1z"></path>
        <path fill="#303030" d="M2.41 15 1 13.6 13.73 1l1.41 1.4z"></path>
    </symbol>
</svg>
