<?xml version="1.0" standalone="no"?>
<!DOCTYPE svg PUBLIC "-//W3C//DTD SVG 20010904//EN"
 "http://www.w3.org/TR/2001/REC-SVG-20010904/DTD/svg10.dtd">
<svg version="1.0" xmlns="http://www.w3.org/2000/svg"
 width="1296.000000pt" height="1296.000000pt" viewBox="0 0 1296.000000 1296.000000"
 preserveAspectRatio="xMidYMid meet">
<metadata>
Created by potrace 1.14, written by Peter Selinger 2001-2017
</metadata>
<g transform="translate(0.000000,1296.000000) scale(0.100000,-0.100000)"
fill="#000000" stroke="none">
<path d="M4009 10302 c-70 -70 -448 -445 -840 -834 -393 -389 -901 -891 -1128
-1117 -228 -226 -417 -411 -420 -412 -4 0 -28 -27 -56 -59 -27 -32 -52 -59
-55 -59 -5 -1 -258 -251 -1153 -1137 -119 -119 -219 -220 -222 -224 -5 -9 393
-410 408 -410 4 0 6 -4 3 -9 -4 -5 -2 -11 3 -13 6 -1 321 -311 700 -687 380
-377 696 -688 703 -693 7 -4 9 -8 3 -8 -5 0 -3 -4 5 -10 8 -5 306 -298 662
-652 357 -354 845 -837 1084 -1075 l435 -431 322 319 c177 176 417 414 533
529 116 115 209 212 206 215 -3 3 1 5 10 5 14 0 253 -233 854 -830 127 -127
233 -230 237 -230 4 0 213 204 464 454 252 250 540 535 639 634 l181 179 659
-653 c363 -360 662 -654 665 -654 4 0 153 145 332 322 179 178 373 370 431
427 58 57 106 105 106 107 0 1 26 27 58 58 71 68 1119 1107 1187 1177 6 6 236
234 512 507 276 273 702 695 946 936 l443 440 -338 335 c-186 185 -559 554
-828 821 -269 267 -817 810 -1217 1207 -683 676 -1544 1529 -1606 1590 l-27
27 -180 -180 c-99 -98 -388 -385 -642 -636 l-461 -458 -193 193 c-106 105
-198 193 -204 195 -5 2 -8 8 -4 13 3 5 1 9 -3 9 -5 0 -205 195 -444 433 -240
237 -446 440 -457 451 -21 18 -23 16 -327 -285 -168 -167 -411 -408 -540 -536
l-234 -232 -338 335 c-186 184 -428 425 -538 534 -111 110 -203 200 -205 200
-3 -1 -62 -58 -131 -128z"/>
</g>
</svg>
