<?xml version="1.0" standalone="no"?>
<!DOCTYPE svg PUBLIC "-//W3C//DTD SVG 20010904//EN"
 "http://www.w3.org/TR/2001/REC-SVG-20010904/DTD/svg10.dtd">
<svg version="1.0" xmlns="http://www.w3.org/2000/svg"
 width="1280.000000pt" height="1280.000000pt" viewBox="0 0 1280.000000 1280.000000"
 preserveAspectRatio="xMidYMid meet">
<metadata>
Created by potrace 1.14, written by Peter Selinger 2001-2017
</metadata>
<g transform="translate(0.000000,1280.000000) scale(0.100000,-0.100000)"
fill="#000000" stroke="none">
<path d="M2235 8170 l-1770 -1770 820 -822 c451 -453 1246 -1250 1768 -1773
l947 -950 482 482 483 483 -1290 1290 -1290 1290 1290 1290 1290 1290 -480
480 -480 480 -1770 -1770z"/>
<path d="M4624 8170 l-1771 -1769 1770 -1776 1770 -1777 486 486 486 486
-1290 1290 -1290 1291 1288 1286 c708 707 1287 1288 1287 1292 0 7 -953 961
-960 961 -3 0 -802 -797 -1776 -1770z"/>
<path d="M7015 8170 l-1770 -1770 1205 -1207 c663 -665 1461 -1464 1773 -1778
l567 -570 1775 1776 1776 1775 -1766 1772 c-972 975 -1772 1772 -1779 1772 -6
0 -808 -796 -1781 -1770z"/>
</g>
</svg>
